<mxfile host="app.diagrams.net" agent="Mozilla/5.0 (Macintosh; Intel Mac OS X 10_15_7) AppleWebKit/605.1.15 (KHTML, like Gecko) Version/18.1.1 Safari/605.1.15" version="25.0.3">
  <diagram name="Page-1" id="9c096ad6-e400-ecc8-3e38-643d2caac077">
    <mxGraphModel dx="1283" dy="801" grid="1" gridSize="10" guides="1" tooltips="1" connect="1" arrows="1" fold="1" page="1" pageScale="1.5" pageWidth="1169" pageHeight="826" background="none" math="0" shadow="0">
      <root>
        <mxCell id="0" style=";html=1;" />
        <mxCell id="1" style=";html=1;" parent="0" />
        <mxCell id="2I7rZnrOHwaW8fpUvapM-11" style="edgeStyle=orthogonalEdgeStyle;rounded=0;orthogonalLoop=1;jettySize=auto;html=1;entryX=0.5;entryY=0;entryDx=0;entryDy=0;curved=1;exitX=0.5;exitY=0;exitDx=0;exitDy=0;fontSize=20;" edge="1" parent="1" source="2I7rZnrOHwaW8fpUvapM-1" target="2I7rZnrOHwaW8fpUvapM-2">
          <mxGeometry relative="1" as="geometry" />
        </mxCell>
        <mxCell id="2I7rZnrOHwaW8fpUvapM-12" value="+" style="edgeLabel;html=1;align=center;verticalAlign=middle;resizable=0;points=[];" vertex="1" connectable="0" parent="2I7rZnrOHwaW8fpUvapM-11">
          <mxGeometry x="-0.7667" y="-8" relative="1" as="geometry">
            <mxPoint as="offset" />
          </mxGeometry>
        </mxCell>
        <mxCell id="2I7rZnrOHwaW8fpUvapM-14" value="&lt;font color=&quot;#ff8000&quot; style=&quot;font-size: 20px;&quot;&gt;+&lt;/font&gt;" style="edgeLabel;html=1;align=center;verticalAlign=middle;resizable=0;points=[];" vertex="1" connectable="0" parent="2I7rZnrOHwaW8fpUvapM-11">
          <mxGeometry x="-0.7333" y="-8" relative="1" as="geometry">
            <mxPoint as="offset" />
          </mxGeometry>
        </mxCell>
        <mxCell id="2I7rZnrOHwaW8fpUvapM-15" value="&lt;font style=&quot;font-size: 20px;&quot; color=&quot;#00cc00&quot;&gt;+&lt;/font&gt;" style="edgeLabel;html=1;align=center;verticalAlign=middle;resizable=0;points=[];" vertex="1" connectable="0" parent="2I7rZnrOHwaW8fpUvapM-11">
          <mxGeometry x="0.6533" y="-7" relative="1" as="geometry">
            <mxPoint as="offset" />
          </mxGeometry>
        </mxCell>
        <mxCell id="2I7rZnrOHwaW8fpUvapM-1" value="投资需求" style="ellipse;whiteSpace=wrap;html=1;" vertex="1" parent="1">
          <mxGeometry x="190" y="200" width="120" height="80" as="geometry" />
        </mxCell>
        <mxCell id="2I7rZnrOHwaW8fpUvapM-16" style="edgeStyle=orthogonalEdgeStyle;rounded=0;orthogonalLoop=1;jettySize=auto;html=1;entryX=0.5;entryY=0;entryDx=0;entryDy=0;exitX=0.5;exitY=0;exitDx=0;exitDy=0;" edge="1" parent="1" source="2I7rZnrOHwaW8fpUvapM-2" target="2I7rZnrOHwaW8fpUvapM-4">
          <mxGeometry relative="1" as="geometry" />
        </mxCell>
        <mxCell id="2I7rZnrOHwaW8fpUvapM-17" value="+" style="edgeLabel;html=1;align=center;verticalAlign=middle;resizable=0;points=[];" vertex="1" connectable="0" parent="2I7rZnrOHwaW8fpUvapM-16">
          <mxGeometry x="-0.656" y="-2" relative="1" as="geometry">
            <mxPoint as="offset" />
          </mxGeometry>
        </mxCell>
        <mxCell id="2I7rZnrOHwaW8fpUvapM-18" value="+" style="edgeLabel;html=1;align=center;verticalAlign=middle;resizable=0;points=[];" vertex="1" connectable="0" parent="2I7rZnrOHwaW8fpUvapM-16">
          <mxGeometry x="0.648" y="3" relative="1" as="geometry">
            <mxPoint as="offset" />
          </mxGeometry>
        </mxCell>
        <mxCell id="2I7rZnrOHwaW8fpUvapM-2" value="总需求" style="ellipse;whiteSpace=wrap;html=1;" vertex="1" parent="1">
          <mxGeometry x="440" y="210" width="120" height="80" as="geometry" />
        </mxCell>
        <mxCell id="2I7rZnrOHwaW8fpUvapM-3" value="利率" style="ellipse;whiteSpace=wrap;html=1;" vertex="1" parent="1">
          <mxGeometry x="430" y="350" width="120" height="80" as="geometry" />
        </mxCell>
        <mxCell id="2I7rZnrOHwaW8fpUvapM-20" style="edgeStyle=orthogonalEdgeStyle;rounded=0;orthogonalLoop=1;jettySize=auto;html=1;entryX=0;entryY=0.5;entryDx=0;entryDy=0;exitX=0.958;exitY=0.763;exitDx=0;exitDy=0;exitPerimeter=0;" edge="1" parent="1" source="2I7rZnrOHwaW8fpUvapM-4" target="2I7rZnrOHwaW8fpUvapM-7">
          <mxGeometry relative="1" as="geometry" />
        </mxCell>
        <mxCell id="2I7rZnrOHwaW8fpUvapM-23" value="+" style="edgeLabel;html=1;align=center;verticalAlign=middle;resizable=0;points=[];" vertex="1" connectable="0" parent="2I7rZnrOHwaW8fpUvapM-20">
          <mxGeometry x="0.8231" y="1" relative="1" as="geometry">
            <mxPoint as="offset" />
          </mxGeometry>
        </mxCell>
        <mxCell id="2I7rZnrOHwaW8fpUvapM-27" value="+" style="edgeLabel;html=1;align=center;verticalAlign=middle;resizable=0;points=[];" vertex="1" connectable="0" parent="2I7rZnrOHwaW8fpUvapM-20">
          <mxGeometry x="-0.9013" y="1" relative="1" as="geometry">
            <mxPoint as="offset" />
          </mxGeometry>
        </mxCell>
        <mxCell id="2I7rZnrOHwaW8fpUvapM-4" value="国民收入" style="ellipse;whiteSpace=wrap;html=1;" vertex="1" parent="1">
          <mxGeometry x="640" y="220" width="120" height="80" as="geometry" />
        </mxCell>
        <mxCell id="2I7rZnrOHwaW8fpUvapM-5" value="消费" style="ellipse;whiteSpace=wrap;html=1;" vertex="1" parent="1">
          <mxGeometry x="640" y="350" width="120" height="80" as="geometry" />
        </mxCell>
        <mxCell id="2I7rZnrOHwaW8fpUvapM-6" value="国内:产品、服务" style="ellipse;whiteSpace=wrap;html=1;" vertex="1" parent="1">
          <mxGeometry x="900" y="210" width="120" height="80" as="geometry" />
        </mxCell>
        <mxCell id="2I7rZnrOHwaW8fpUvapM-24" style="edgeStyle=orthogonalEdgeStyle;rounded=0;orthogonalLoop=1;jettySize=auto;html=1;" edge="1" parent="1" source="2I7rZnrOHwaW8fpUvapM-7" target="2I7rZnrOHwaW8fpUvapM-10">
          <mxGeometry relative="1" as="geometry" />
        </mxCell>
        <mxCell id="2I7rZnrOHwaW8fpUvapM-25" value="+" style="edgeLabel;html=1;align=center;verticalAlign=middle;resizable=0;points=[];" vertex="1" connectable="0" parent="2I7rZnrOHwaW8fpUvapM-24">
          <mxGeometry x="-0.6857" y="1" relative="1" as="geometry">
            <mxPoint as="offset" />
          </mxGeometry>
        </mxCell>
        <mxCell id="2I7rZnrOHwaW8fpUvapM-26" value="+" style="edgeLabel;html=1;align=center;verticalAlign=middle;resizable=0;points=[];" vertex="1" connectable="0" parent="2I7rZnrOHwaW8fpUvapM-24">
          <mxGeometry x="0.5714" relative="1" as="geometry">
            <mxPoint as="offset" />
          </mxGeometry>
        </mxCell>
        <mxCell id="2I7rZnrOHwaW8fpUvapM-7" value="国外:产品、服务" style="ellipse;whiteSpace=wrap;html=1;" vertex="1" parent="1">
          <mxGeometry x="910" y="330" width="120" height="80" as="geometry" />
        </mxCell>
        <mxCell id="2I7rZnrOHwaW8fpUvapM-8" value="汇率" style="ellipse;whiteSpace=wrap;html=1;" vertex="1" parent="1">
          <mxGeometry x="430" y="480" width="120" height="80" as="geometry" />
        </mxCell>
        <mxCell id="2I7rZnrOHwaW8fpUvapM-9" value="出口" style="ellipse;whiteSpace=wrap;html=1;" vertex="1" parent="1">
          <mxGeometry x="650" y="490" width="120" height="80" as="geometry" />
        </mxCell>
        <mxCell id="2I7rZnrOHwaW8fpUvapM-10" value="进口" style="ellipse;whiteSpace=wrap;html=1;" vertex="1" parent="1">
          <mxGeometry x="910" y="480" width="120" height="80" as="geometry" />
        </mxCell>
        <mxCell id="2I7rZnrOHwaW8fpUvapM-19" style="edgeStyle=orthogonalEdgeStyle;rounded=0;orthogonalLoop=1;jettySize=auto;html=1;entryX=0.025;entryY=0.625;entryDx=0;entryDy=0;entryPerimeter=0;" edge="1" parent="1" source="2I7rZnrOHwaW8fpUvapM-4" target="2I7rZnrOHwaW8fpUvapM-6">
          <mxGeometry relative="1" as="geometry" />
        </mxCell>
        <mxCell id="2I7rZnrOHwaW8fpUvapM-21" value="&lt;font style=&quot;font-size: 21px;&quot;&gt;+&lt;/font&gt;" style="edgeLabel;html=1;align=center;verticalAlign=middle;resizable=0;points=[];" vertex="1" connectable="0" parent="2I7rZnrOHwaW8fpUvapM-19">
          <mxGeometry x="-0.8042" y="-1" relative="1" as="geometry">
            <mxPoint as="offset" />
          </mxGeometry>
        </mxCell>
        <mxCell id="2I7rZnrOHwaW8fpUvapM-22" value="+" style="edgeLabel;html=1;align=center;verticalAlign=middle;resizable=0;points=[];" vertex="1" connectable="0" parent="2I7rZnrOHwaW8fpUvapM-19">
          <mxGeometry x="0.6503" y="-1" relative="1" as="geometry">
            <mxPoint as="offset" />
          </mxGeometry>
        </mxCell>
      </root>
    </mxGraphModel>
  </diagram>
</mxfile>
